<?xml version="1.0" encoding="utf-8"?>
<!-- Generator: Adobe Illustrator 19.2.1, SVG Export Plug-In . SVG Version: 6.00 Build 0)  -->
<!DOCTYPE svg PUBLIC "-//W3C//DTD SVG 1.1//EN" "http://www.w3.org/Graphics/SVG/1.1/DTD/svg11.dtd">
<svg version="1.1" id="Layer_1" xmlns="http://www.w3.org/2000/svg" xmlns:xlink="http://www.w3.org/1999/xlink" x="0px" y="0px"
	 viewBox="0 0 99.6 21" style="enable-background:new 0 0 99.6 21;" xml:space="preserve">
<style type="text/css">
	.st0{clip-path:url(#SVGID_2_);fill:#FFFFFF;}
	.st1{fill:#FFFFFF;}
</style>
<g>
	<defs>
		<rect id="SVGID_1_" width="99.6" height="21"/>
	</defs>
	<clipPath id="SVGID_2_">
		<use xlink:href="#SVGID_1_"  style="overflow:visible;"/>
	</clipPath>
	<path class="st0" d="M42.3,17.3v-0.5c0-3.3,0-6.6,0-10c0-0.1,0-0.3,0-0.4c0-0.3-0.3-0.6-0.7-0.5c-0.4,0-0.6,0.2-0.6,0.6
		c0,0.1,0,0.3,0,0.4v9.9v0.5h-2c-1.1,0-1.1,0-1.1-1V4.1V3.6h3c0,0.3,0.1,0.6,0.1,1c0.6-0.7,1.2-1.2,2.2-1.2c1,0,1.6,0.5,2,1.3
		c0.2-0.2,0.3-0.4,0.5-0.6c0.7-0.7,1.5-0.9,2.5-0.7c0.9,0.2,1.4,0.9,1.6,1.7c0.1,0.3,0.1,0.6,0.1,0.8c0,3.7,0,7.3,0,11
		c0,0.1,0,0.2,0,0.3h-3.1v-0.5c0-3.3,0-6.6,0-10c0-0.1,0-0.3,0-0.4c0-0.4-0.3-0.6-0.7-0.6c-0.4,0-0.6,0.2-0.6,0.6c0,0.2,0,0.3,0,0.5
		c0,3.3,0,6.6,0,9.9c0,0.4-0.1,0.5-0.5,0.5C44.1,17.3,43.2,17.3,42.3,17.3"/>
	<path class="st0" d="M78.6,10c0,1.2,0,2.3,0,3.5c0,0.5,0.4,0.8,0.8,0.7c0.4-0.1,0.5-0.4,0.5-0.7c0-2.2,0-4.5,0-6.7
		c0-0.5-0.3-0.8-0.7-0.8c-0.4,0-0.7,0.3-0.7,0.8C78.6,7.7,78.6,8.8,78.6,10 M79.9,4.6c0-0.4,0.1-0.7,0.1-1h3V4c0,4.6,0,9.2,0,13.8
		c0,2-1.2,3.1-3.3,3.2c-0.6,0-1.3,0-1.9-0.1c-1.5-0.3-2.2-1.2-2.3-2.6c-0.1-1-0.1-1,1-1c0.7,0,1.3,0,2,0c0,0.4,0,0.7,0,1
		c0,0.4,0.2,0.7,0.7,0.7c0.4,0,0.7-0.2,0.7-0.7c0-1,0-1.9,0-2.9c-0.3,0.2-0.5,0.4-0.7,0.6c-0.7,0.5-1.5,0.6-2.3,0.3
		c-0.8-0.3-1.2-1-1.3-1.8c0-0.3,0-0.5,0-0.8c0-2.5,0-5,0-7.6c0-0.3,0-0.7,0.1-1c0.2-0.8,0.8-1.4,1.7-1.6c0.9-0.2,1.6,0.1,2.2,0.8
		C79.7,4.3,79.8,4.4,79.9,4.6"/>
	<path class="st0" d="M0,11.1h3.4c0,0.4,0,0.8,0,1.2c0,0.7,0,1.3,0,2c0,0.4,0.3,0.7,0.7,0.7c0.4,0,0.7-0.2,0.7-0.7
		c0-0.8,0-1.6,0-2.4c0-0.5-0.3-1-0.7-1.4C3.2,9.9,2.5,9.1,1.6,8.4C0.5,7.5-0.1,6.3,0,4.8c0-0.6,0-1.1,0-1.7c0-1.4,0.8-2.4,2.2-2.8
		c1.3-0.4,2.6-0.4,3.8,0c1.4,0.4,2.2,1.4,2.2,2.8c0,0.8,0,1.7,0,2.6H4.8c0-0.1,0-0.3,0-0.4c0-0.7,0-1.4,0-2.1c0-0.4-0.3-0.7-0.7-0.7
		c-0.4,0-0.6,0.3-0.7,0.7c0,0,0,0.1,0,0.1C3.2,4.9,3.8,6.2,5.2,7.2c0.5,0.4,1,0.8,1.5,1.3c1.1,1,1.7,2.2,1.6,3.6c0,0.8,0,1.6,0,2.4
		c0,1.2-0.6,2.1-1.9,2.6c-1.5,0.6-3.1,0.6-4.6,0c-1.1-0.4-1.8-1.2-1.8-2.4C0,13.6,0,12.4,0,11.1"/>
	<path class="st0" d="M55.1,10.4c0-1.2,0-2.4,0-3.6c0-0.1,0-0.3,0-0.4c-0.1-0.3-0.3-0.5-0.7-0.5c-0.4,0-0.6,0.2-0.6,0.5
		c0,0.1,0,0.3,0,0.4c0,2.4,0,4.8,0,7.2c0,0.2,0,0.4,0.1,0.5c0.1,0.2,0.3,0.4,0.5,0.4c0.2,0,0.5-0.2,0.6-0.3c0.1-0.1,0.1-0.4,0.1-0.5
		C55.1,12.9,55.1,11.6,55.1,10.4 M53.7,16.3c0,0.4,0,0.7-0.1,1h-3V0.1h3.1v4.4c0,0,0.1,0,0.1,0c0.1-0.1,0.2-0.2,0.3-0.3
		c0.6-0.6,1.3-0.9,2.2-0.7c0.9,0.2,1.5,0.8,1.7,1.7c0.1,0.2,0.1,0.4,0.1,0.7c0,3.1,0,6.1,0,9.2c0,0.4-0.1,0.8-0.3,1.2
		c-0.7,1.6-2.8,1.8-3.9,0.4C53.9,16.5,53.8,16.4,53.7,16.3"/>
	<path class="st0" d="M17.5,0.1h3v4.4c0,0,0.1,0.1,0.1,0.1c0-0.1,0-0.1,0.1-0.2c0.8-0.8,1.7-1.1,2.7-0.8c0.9,0.3,1.4,1.1,1.5,2.2
		c0,0.2,0,0.3,0,0.5c0,3.5,0,7.1,0,10.6v0.5h-3c0-0.2,0-0.3,0-0.5c0-3.3,0-6.5,0-9.8c0-0.2,0-0.3,0-0.5C21.8,6.2,21.5,6,21.2,6
		c-0.4,0-0.6,0.2-0.7,0.5c0,0.2,0,0.3,0,0.5c0,3.3,0,6.5,0,9.8v0.5h-3V0.1z"/>
	<path class="st0" d="M37.1,3.6v13.7h-2.9c0-0.3-0.1-0.6-0.1-1c-0.2,0.2-0.2,0.3-0.3,0.4c-0.7,0.7-1.5,1-2.5,0.6c-1-0.3-1.4-1-1.6-2
		c0-0.2,0-0.4,0-0.6c0-3.6,0-7.1,0-10.7V3.6h3.1v0.5c0,3.3,0,6.6,0,10c0,0.2,0,0.4,0.1,0.6c0.1,0.3,0.3,0.4,0.6,0.4
		c0.3,0,0.5-0.2,0.6-0.5c0-0.2,0-0.4,0-0.6c0-3.3,0-6.5,0-9.8V3.6H37.1z"/>
	<path class="st0" d="M63.3,8.8c0-0.8,0-1.6,0-2.5c0-0.5-0.2-0.7-0.6-0.7c-0.4,0-0.6,0.3-0.7,0.7c0,0.5,0,1,0,1.5c0,1.1,0,1.1,1.1,1
		C63.2,8.9,63.2,8.9,63.3,8.8 M66.4,10.9h-4.4c0,0.2,0,0.3,0,0.4c0,1,0,2.1,0,3.1c0,0.1,0,0.2,0,0.3c0.1,0.3,0.4,0.6,0.7,0.5
		c0.4,0,0.6-0.3,0.6-0.6c0-0.7,0-1.5,0-2.2v-0.5h3.2c-0.1,1.1,0,2.2-0.2,3.3c-0.2,1.2-1.3,1.8-2.5,2.1c-0.9,0.2-1.8,0.2-2.7-0.1
		c-1.4-0.4-2.2-1.4-2.2-2.8c0-2.6,0-5.3,0-7.9c0-1.6,1.2-2.8,2.9-3c0.9-0.1,1.9-0.1,2.7,0.3c1.1,0.4,1.8,1.2,1.8,2.3
		C66.5,7.7,66.4,9.3,66.4,10.9"/>
	<path class="st0" d="M86.9,7.4L86.9,7.4c0,0.4,0,0.8,0,1.2c0,0.1,0.1,0.2,0.2,0.3c0.3,0,0.6,0,0.9,0c0.1,0,0.2-0.1,0.2-0.2
		c0-0.8,0-1.6,0-2.4c0-0.4-0.3-0.6-0.6-0.6c-0.4,0-0.6,0.2-0.6,0.6C86.9,6.6,86.9,7,86.9,7.4 M91.3,10.9H87c0,0.1-0.1,0.1-0.1,0.2
		c0,1.2,0,2.3,0,3.5c0,0.4,0.2,0.6,0.6,0.6c0.3,0,0.6-0.2,0.7-0.6c0-0.1,0-0.3,0-0.4c0-0.7,0-1.3,0-2c0-0.3,0.1-0.4,0.4-0.4
		c0.8,0,1.6,0,2.3,0c0.3,0,0.4,0.1,0.4,0.3c0,0.6,0,1.3,0,1.9c0.1,2-1.4,3-3.1,3.3c-1,0.1-2.1,0-3-0.5c-0.9-0.5-1.4-1.3-1.4-2.3
		c0-2.8,0-5.6,0-8.3c0-1.2,0.8-2.2,2.1-2.6c1.3-0.4,2.6-0.4,3.8,0.3c0.9,0.5,1.5,1.3,1.5,2.3c0,1.5,0,2.9,0,4.4
		C91.3,10.7,91.3,10.8,91.3,10.9"/>
	<path class="st0" d="M16.7,11.9c-0.1,1.2,0,2.3-0.3,3.5c-0.2,1.1-1.2,1.7-2.3,2c-1,0.2-1.9,0.2-2.9-0.1c-1.4-0.4-2.1-1.4-2.1-2.8
		c0-2.6,0-5.2,0-7.8c0-1.7,1.1-2.9,2.9-3.1c0.9-0.1,1.8-0.1,2.7,0.3c1.1,0.5,1.8,1.2,1.9,2.4c0.1,0.8,0,1.7,0,2.5h-3.1V8.3
		c0-0.7,0-1.3,0-2c0-0.4-0.3-0.7-0.7-0.7c-0.4,0-0.6,0.3-0.6,0.7c0,2.8,0,5.5,0,8.3c0,0.4,0.3,0.6,0.7,0.6c0.4,0,0.7-0.2,0.7-0.6
		c0-0.8,0-1.5,0-2.3c0-0.3,0.1-0.4,0.4-0.4C14.8,11.9,15.7,11.9,16.7,11.9"/>
	<path class="st0" d="M92.1,17.3V3.6h3c0,0.3,0.1,0.6,0.1,1c0.2-0.2,0.3-0.3,0.4-0.4c0.7-0.6,1.5-0.9,2.4-0.6c0.9,0.3,1.4,1,1.5,1.8
		c0,0.2,0,0.3,0,0.5c0,1.6,0,3.2,0,4.7c0,0.3-0.1,0.4-0.4,0.4c-0.8,0-1.6,0-2.3,0c-0.3,0-0.4-0.1-0.4-0.4c0-1.3,0-2.7,0-4
		c0-0.6-0.6-0.8-1-0.6c-0.2,0.1-0.3,0.3-0.4,0.5c-0.1,0.1,0,0.3,0,0.4v9.9v0.5H92.1z"/>
	<path class="st0" d="M67.3,3.6h3c0,0.3,0.1,0.6,0.1,1c0.2-0.2,0.3-0.3,0.3-0.4c0.7-0.8,1.7-1,2.6-0.7c0.9,0.3,1.5,1.1,1.5,2.1
		c0,1.8,0,3.5,0,5.3h-3.1v-0.8c0-1.2,0-2.4,0-3.5c0-0.4-0.2-0.6-0.6-0.7c-0.4,0-0.7,0.2-0.7,0.6c0,0.1,0,0.3,0,0.4
		c0,3.3,0,6.6,0,9.8v0.5h-3V3.6z"/>
</g>
<rect x="25.7" y="0.1" class="st1" width="3" height="17.2"/>
</svg>
